<?xml version="1.0" encoding="iso-8859-1"?>
<!-- Uploaded to: SVG Repo, www.svgrepo.com, Generator: SVG Repo Mixer Tools -->
<svg height="800px" width="800px" version="1.1" id="Layer_1" xmlns="http://www.w3.org/2000/svg" xmlns:xlink="http://www.w3.org/1999/xlink" 
	 viewBox="0 0 512 512" xml:space="preserve">
<path style="fill:#E0E0E2;" d="M256,512C114.842,512,0,397.16,0,256S114.842,0,256,0s256,114.84,256,256S397.158,512,256,512z"/>
<path style="fill:#C7C5CA;" d="M256,0v512c141.158,0,256-114.84,256-256S397.158,0,256,0z"/>
<path style="fill:#FF623F;" d="M436.42,237.268h-25.45c-8.547-71.131-65.111-127.694-136.242-136.238V75.577
	c0-10.345-8.387-18.732-18.732-18.732s-18.732,8.387-18.732,18.732v25.454c-71.127,8.547-127.689,65.109-136.234,136.237H75.574
	c-10.345,0-18.732,8.387-18.732,18.732c0,10.345,8.387,18.732,18.732,18.732h25.456c8.545,71.128,65.108,127.69,136.234,136.237
	v25.454c0,10.345,8.387,18.732,18.732,18.732s18.732-8.387,18.732-18.732V410.97c71.131-8.544,127.695-65.109,136.242-136.238h25.45
	c10.345,0,18.732-8.387,18.732-18.732C455.152,245.655,446.765,237.268,436.42,237.268z M274.728,373.151v-22.843
	c0-10.345-8.387-18.732-18.732-18.732c-10.345,0-18.732,8.387-18.732,18.732v22.841c-50.441-8.037-90.379-47.977-98.415-98.418
	h22.838c10.345,0,18.732-8.387,18.732-18.732c0-10.345-8.387-18.732-18.732-18.732h-22.838c8.036-50.441,47.974-90.38,98.415-98.418
	v22.841c0,10.345,8.387,18.732,18.732,18.732c10.345,0,18.732-8.387,18.732-18.732v-22.843
	c50.443,8.035,90.387,47.976,98.423,98.419h-22.845c-10.345,0-18.732,8.387-18.732,18.732c0,10.345,8.387,18.732,18.732,18.732
	h22.845C365.115,325.175,325.171,365.116,274.728,373.151z"/>
<path style="fill:#FF0536;" d="M436.42,237.268h-25.45c-8.547-71.131-65.111-127.694-136.242-136.238V75.577
	c0-10.344-8.384-18.729-18.728-18.732v123.578c10.344-0.002,18.728-8.388,18.728-18.732v-22.843
	c50.443,8.035,90.387,47.976,98.423,98.419h-22.845c-10.345,0-18.732,8.387-18.732,18.732c0,10.345,8.387,18.732,18.732,18.732
	h22.845c-8.036,50.443-47.978,90.384-98.423,98.419v-22.843c0-10.344-8.384-18.729-18.728-18.732v123.578
	c10.344-0.003,18.728-8.388,18.728-18.732V410.97c71.131-8.544,127.695-65.109,136.242-136.238h25.45
	c10.345,0,18.732-8.387,18.732-18.732C455.152,245.655,446.765,237.268,436.42,237.268z"/>
</svg>