<?xml version="1.0" encoding="iso-8859-1"?>
<!-- Uploaded to: SVG Repo, www.svgrepo.com, Generator: SVG Repo Mixer Tools -->
<svg height="800px" width="800px" version="1.1" id="Layer_1" xmlns="http://www.w3.org/2000/svg" xmlns:xlink="http://www.w3.org/1999/xlink" 
	 viewBox="0 0 512 512" xml:space="preserve">
<path style="fill:#6AC8B7;" d="M432.552,0H79.448c-4.875,0-8.828,3.953-8.828,8.828v494.345c0,4.875,3.953,8.828,8.828,8.828
	h353.103c4.875,0,8.828-3.953,8.828-8.828V8.828C441.379,3.953,437.427,0,432.552,0z"/>
<path style="fill:#2DB59F;" d="M97.103,503.172V8.828c0-4.875,3.953-8.828,8.828-8.828H79.448c-4.875,0-8.828,3.953-8.828,8.828
	v494.345c0,4.875,3.953,8.828,8.828,8.828h26.483C101.056,512,97.103,508.047,97.103,503.172z"/>
<path style="fill:#AFF0E8;" d="M61.793,52.966h388.414c14.602,0,26.483-11.881,26.483-26.483S464.809,0,450.207,0H61.793
	C47.191,0,35.31,11.881,35.31,26.483S47.191,52.966,61.793,52.966z"/>
<path style="fill:#74DBC9;" d="M459.034,35.31H70.621c-14.602,0-26.483-11.881-26.483-26.483c0-0.723,0.038-1.436,0.094-2.144
	c-5.468,4.855-8.921,11.929-8.921,19.799c0,14.602,11.881,26.483,26.483,26.483h388.414c13.88,0,25.292-10.735,26.389-24.339
	C471.917,32.781,465.768,35.31,459.034,35.31z"/>
<path style="fill:#AFF0E8;" d="M450.207,459.034H61.793c-14.602,0-26.483,11.881-26.483,26.483S47.191,512,61.793,512h388.414
	c14.602,0,26.483-11.881,26.483-26.483S464.809,459.034,450.207,459.034z"/>
<path style="fill:#74DBC9;" d="M459.034,494.345H70.621c-14.602,0-26.483-11.881-26.483-26.483c0-0.723,0.038-1.436,0.094-2.144
	c-5.468,4.855-8.921,11.929-8.921,19.799C35.31,500.119,47.191,512,61.793,512h388.414c13.88,0,25.292-10.735,26.389-24.339
	C471.917,491.816,465.768,494.345,459.034,494.345z"/>
<g>
	<path style="fill:#AFF0E8;" d="M441.379,158.897H335.448c-4.875,0-8.828-3.953-8.828-8.828c0-4.875,3.953-8.828,8.828-8.828
		h105.931c4.875,0,8.828,3.953,8.828,8.828C450.207,154.944,446.254,158.897,441.379,158.897z"/>
	<path style="fill:#AFF0E8;" d="M176.552,158.897H70.621c-4.875,0-8.828-3.953-8.828-8.828c0-4.875,3.953-8.828,8.828-8.828h105.931
		c4.875,0,8.828,3.953,8.828,8.828C185.379,154.944,181.427,158.897,176.552,158.897z"/>
	<path style="fill:#AFF0E8;" d="M441.379,370.759h-97.103c-4.875,0-8.828-3.953-8.828-8.828s3.953-8.828,8.828-8.828h97.103
		c4.875,0,8.828,3.953,8.828,8.828S446.254,370.759,441.379,370.759z"/>
	<path style="fill:#AFF0E8;" d="M176.552,370.759H70.621c-4.875,0-8.828-3.953-8.828-8.828s3.953-8.828,8.828-8.828h105.931
		c4.875,0,8.828,3.953,8.828,8.828S181.427,370.759,176.552,370.759z"/>
</g>
<path style="fill:#FDD042;" d="M303.071,190.465c-19.871-29.839-39.41-53.847-40.232-54.855c-3.477-4.262-10.201-4.262-13.678,0
	c-0.822,1.007-20.361,25.015-40.232,54.855c-27.342,41.056-41.205,71.999-41.205,91.967c0,48.675,39.601,88.276,88.276,88.276
	s88.276-39.601,88.276-88.276C344.276,262.464,330.413,231.521,303.071,190.465z"/>
<path style="fill:#F2C127;" d="M282.483,353.053c-48.675,0-88.276-39.601-88.276-88.276c0-19.969,13.863-50.912,41.205-91.968
	c9.781-14.688,19.477-27.955,26.904-37.77c-3.593-3.673-9.843-3.489-13.155,0.57c-0.822,1.007-20.361,25.015-40.232,54.855
	c-27.342,41.057-41.205,72-41.205,91.968c0,48.675,39.601,88.276,88.276,88.276c23.777,0,45.373-9.466,61.261-24.807
	C306.582,350.497,294.827,353.053,282.483,353.053z"/>
<circle style="fill:#FDE5A2;" cx="300.138" cy="282.483" r="26.483"/>
</svg>