<?xml version="1.0" encoding="iso-8859-1"?>
<!-- Uploaded to: SVG Repo, www.svgrepo.com, Generator: SVG Repo Mixer Tools -->
<svg height="800px" width="800px" version="1.1" id="Layer_1" xmlns="http://www.w3.org/2000/svg" xmlns:xlink="http://www.w3.org/1999/xlink" 
	 viewBox="0 0 511.999 511.999" xml:space="preserve">
<path style="fill:#5B7F99;" d="M256,511.999c-136.774,0-247.652-110.949-247.652-247.812S119.226,16.374,256,16.374
	s247.652,110.949,247.652,247.812S392.774,511.999,256,511.999z"/>
<path style="fill:#AFD5FF;" d="M257.597,433.624c-94.399,0-170.924-76.575-170.924-171.036S163.197,91.554,257.597,91.554
	s170.925,76.575,170.925,171.036S351.995,433.624,257.597,433.624z"/>
<path style="fill:#DC2C13;" d="M497.238,320.446C471.776,430.205,373.435,511.999,256,511.999S40.223,430.205,14.761,320.446
	H497.238z"/>
<path style="fill:#FFD194;" d="M133.42,346.358c-16.288,0-30.969-10.091-36.528-25.402c-6.611-18.214-10.221-37.868-10.221-58.368
	c0-94.461,76.526-171.036,170.924-171.036c23.27,0,45.45,4.661,65.67,13.088L218.639,346.357H133.42V346.358z"/>
<g>
	<path style="fill:#F2702F;" d="M256,282.73c-14.486,0-26.229-11.75-26.229-26.247c0-14.496,11.744-26.247,26.229-26.247
		c14.485,0,26.229,11.75,26.229,26.247C282.229,270.98,270.486,282.73,256,282.73z"/>
	<path style="fill:#F2702F;" d="M418.484,320.446c-23.702,65.986-86.784,113.179-160.888,113.179S120.41,386.431,96.708,320.446
		H418.484z"/>
</g>
<path style="fill:#DC2C13;" d="M376.513,14.164L265.065,260.178c-1.676,3.7-5.318,5.888-9.13,5.888
	c-1.383,0-2.788-0.288-4.129-0.897c-5.039-2.286-7.273-8.227-4.988-13.269L358.266,5.887c2.285-5.042,8.221-7.276,13.26-4.991
	S378.798,9.122,376.513,14.164z"/>
<path style="fill:#B21100;" d="M273.11,90.489c-0.257,5.53-4.932,9.825-10.473,9.547c-2.469-0.116-4.964-0.174-7.418-0.174
	c-86.187,0-156.306,70.082-156.306,156.223c0,5.536-4.484,10.024-10.017,10.024c-5.533,0-10.017-4.488-10.017-10.024
	c0-97.197,79.106-176.272,176.341-176.272c2.763,0,5.572,0.066,8.35,0.195C269.097,80.268,273.368,84.959,273.11,90.489z"/>
<path style="fill:#415E70;" d="M431.677,256.086c0,5.536-4.484,10.024-10.017,10.024c-5.533,0-10.042-4.488-10.042-10.024
	c0-5.536,4.46-10.024,9.993-10.024h0.049C427.192,246.062,431.677,250.55,431.677,256.086z M420.258,193.684
	c-2.077-5.131-7.918-7.604-13.046-5.527l-0.043,0.018c-5.128,2.078-7.58,7.915-5.502,13.045c1.577,3.897,5.336,6.255,9.299,6.255
	c1.256,0,2.533-0.237,3.767-0.737C419.862,204.66,422.335,198.816,420.258,193.684z M371.302,135.914l-0.041,0.035
	c-4.213,3.588-4.7,9.898-1.113,14.113c1.978,2.324,4.793,3.516,7.628,3.516c2.305,0,4.625-0.789,6.515-2.399
	c4.213-3.588,4.72-9.915,1.134-14.13C381.837,132.833,375.514,132.326,371.302,135.914z M358.2,310.422H153.676
	c-5.533,0-10.017,4.488-10.017,10.024c0,5.536,4.484,10.024,10.017,10.024h204.523c5.533,0,10.017-4.488,10.017-10.024
	C368.218,314.909,363.733,310.422,358.2,310.422z"/>
</svg>