<?xml version="1.0" encoding="iso-8859-1"?>
<!-- Uploaded to: SVG Repo, www.svgrepo.com, Generator: SVG Repo Mixer Tools -->
<svg height="800px" width="800px" version="1.1" id="Layer_1" xmlns="http://www.w3.org/2000/svg" xmlns:xlink="http://www.w3.org/1999/xlink" 
	 viewBox="0 0 512 512" xml:space="preserve">
<path style="fill:#234556;" d="M512,244.02v23.964c0,12.808-10.394,23.286-23.097,23.286H444.24h-91.344l70.397,59.069
	l33.791,28.354c9.731,8.165,10.958,22.873,2.726,32.685l-15.403,18.357c-8.232,9.811-22.93,11.157-32.661,2.992l-33.363-27.995
	L256,302.039L133.619,404.729l-33.363,27.995c-9.731,8.165-24.429,6.82-32.661-2.992l-15.403-18.356
	c-8.232-9.81-7.005-24.519,2.726-32.685l33.791-28.354l70.397-59.069H66.65H23.097C10.394,291.268,0,280.79,0,267.983V244.02
	c0-12.807,10.394-23.286,23.097-23.286h44.111h91.896L89.131,162.02l-34.214-28.709c-9.731-8.165-10.958-22.873-2.726-32.685
	l15.403-18.357c8.232-9.81,22.93-11.157,32.661-2.992l32.398,27.185L256,209.963l123.346-103.5l32.398-27.185
	c9.731-8.165,24.429-6.82,32.661,2.992l15.403,18.357c8.232,9.811,7.006,24.519-2.726,32.685l-34.214,28.709l-69.974,58.714h93.715
	h42.292C501.607,220.734,512,231.212,512,244.02z"/>
<path style="fill:#415E70;" d="M447.29,256c0,105.647-85.643,191.29-191.29,191.29S64.71,361.647,64.71,256
	S150.353,64.711,256,64.711S447.29,150.354,447.29,256z"/>
<path style="fill:#234556;" d="M397.203,256c0,77.984-63.219,141.203-141.203,141.203S114.797,333.985,114.797,256
	S178.016,114.798,256,114.798S397.203,178.016,397.203,256z"/>
<path style="fill:#071C23;" d="M362.004,256c0,58.545-47.46,106.004-106.004,106.004S149.996,314.544,149.996,256
	S197.456,149.996,256,149.996S362.004,197.455,362.004,256z"/>
<path style="fill:#E69724;" d="M266.019,124.254v249.36c0,5.533-4.484,10.017-10.017,10.017c-5.533,0-10.017-4.484-10.017-10.017
	v-249.36c0-5.533,4.484-10.017,10.017-10.017C261.534,114.237,266.019,118.721,266.019,124.254z"/>
<path style="fill:#DA6D18;" d="M322.093,26.338v65.278c0,3.566-1.897,6.864-4.979,8.657l-56.073,32.638
	c-1.557,0.906-3.298,1.36-5.039,1.36c-1.741,0-3.482-0.453-5.039-1.36l-56.076-32.638c-3.082-1.794-4.979-5.091-4.979-8.657V26.338
	c0-3.566,1.897-6.864,4.979-8.657l28.038-16.318c4.782-2.784,10.913-1.163,13.697,3.619c2.783,4.782,1.163,10.915-3.619,13.697
	l-23.061,13.42v53.757l46.059,26.808l46.056-26.807V32.098l-23.056-13.421c-4.782-2.783-6.401-8.915-3.619-13.697
	c2.783-4.782,8.915-6.402,13.697-3.619l28.035,16.318C320.196,19.474,322.093,22.772,322.093,26.338z"/>
<path style="fill:#B21100;" d="M269.672,512h-27.346c-9.825,0-17.86-8.103-17.86-18.01V348.839c0-17.483,14.19-31.789,31.536-31.789
	l0,0c17.342,0,31.536,14.306,31.536,31.789V493.99C287.537,503.897,279.5,512,269.672,512L269.672,512z"/>
<path style="fill:#DC2C13;" d="M256,317.05V512h-13.676c-9.825,0-17.86-8.103-17.86-18.01V348.839
	C224.464,331.356,238.655,317.05,256,317.05z"/>
</svg>