<?xml version="1.0" encoding="iso-8859-1"?>
<!-- Uploaded to: SVG Repo, www.svgrepo.com, Generator: SVG Repo Mixer Tools -->
<!DOCTYPE svg PUBLIC "-//W3C//DTD SVG 1.1//EN" "http://www.w3.org/Graphics/SVG/1.1/DTD/svg11.dtd">
<svg fill="#000000" height="800px" width="800px" version="1.1" id="Capa_1" xmlns="http://www.w3.org/2000/svg" xmlns:xlink="http://www.w3.org/1999/xlink" 
	 viewBox="0 0 297 297" xml:space="preserve">
<g>
	<path d="M241.423,297c3.378,0,6.518-1.736,8.314-4.597c24.621-39.209,38.181-90.731,38.181-145.077
		c0-53.089-13.017-103.735-36.652-142.609C249.484,1.788,246.304,0,242.876,0H54.124c-3.428,0-6.608,1.788-8.39,4.717
		C22.099,43.591,9.082,94.237,9.082,147.326c0,54.346,13.56,105.868,38.181,145.077c1.797,2.86,4.937,4.597,8.314,4.597H241.423z
		 M82.854,219.682c-3.63-22.713-5.535-47.179-5.535-72.355c0-24.267,1.781-47.931,5.179-70.008h132.006
		c3.398,22.077,5.179,45.741,5.179,70.008c0,25.177-1.905,49.643-5.535,72.355H82.854z M28.718,147.326
		c0-24.282,2.891-47.955,8.396-70.008h25.538c-3.263,22.229-4.971,45.862-4.971,70.008c0,25.039,1.823,49.474,5.308,72.355H37.696
		C31.81,196.994,28.718,172.52,28.718,147.326z M234.348,77.318h25.538c5.506,22.053,8.396,45.726,8.396,70.008
		c0,25.193-3.093,49.668-8.978,72.355H234.01c3.485-22.882,5.309-47.316,5.309-72.355C239.318,123.181,237.61,99.548,234.348,77.318
		z M254.143,57.682H230.99c-2.639-13.424-5.882-26.178-9.688-38.045h15.96C243.912,31.319,249.558,44.098,254.143,57.682z
		 M210.968,57.682h-52.649V19.637h42.292C204.689,31.351,208.153,44.125,210.968,57.682z M138.682,19.637v38.045H86.032
		c2.814-13.557,6.279-26.331,10.357-38.045H138.682z M59.737,19.637h15.959c-3.805,11.867-7.048,24.621-9.686,38.045H42.857
		C47.442,44.098,53.088,31.319,59.737,19.637z M43.649,239.318h22.822c2.73,13.447,6.072,26.2,9.988,38.045H61.097
		C54.239,265.711,48.404,252.934,43.649,239.318z M86.518,239.318h52.164v38.045H97.221
		C93.016,265.679,89.437,252.905,86.518,239.318z M158.318,277.363v-38.045h52.164c-2.919,13.587-6.498,26.36-10.704,38.045H158.318
		z M235.903,277.363H220.54c3.916-11.845,7.258-24.598,9.988-38.045h22.822C248.596,252.934,242.761,265.711,235.903,277.363z"/>
	<path d="M185.976,163.097h-8.827l-14.242-14.388l14.662-14.811h8.407c5.422,0,9.818-4.396,9.818-9.818
		c0-5.422-4.396-9.818-9.818-9.818h-3.803l0.004-3.883c0.005-5.422-4.387-9.822-9.81-9.827c-0.003,0-0.005,0-0.009,0
		c-5.418,0-9.813,4.391-9.817,9.81l-0.01,10.813l-13.439,13.578l-14.623-14.772v-9.61c0-5.422-4.396-9.818-9.818-9.818
		s-9.818,4.397-9.818,9.818v3.898h-3.808c-5.423,0-9.818,4.396-9.818,9.818c0,5.422,4.396,9.818,9.818,9.818h9.597l14.655,14.805
		l-14.248,14.393h-10.004c-5.423,0-9.818,4.396-9.818,9.818s4.396,9.818,9.818,9.818h3.801l-0.002,3.883
		c-0.005,5.423,4.387,9.822,9.809,9.827c0.004,0,0.006,0,0.009,0c5.419,0,9.813-4.391,9.818-9.81l0.008-9.199l14.625-14.774
		l13.439,13.577v10.388c0,5.422,4.396,9.818,9.818,9.818c5.422,0,9.818-4.396,9.818-9.818v-3.898h3.809
		c5.422,0,9.818-4.396,9.818-9.818C195.794,167.493,191.398,163.097,185.976,163.097z"/>
</g>
</svg>