<?xml version="1.0" encoding="iso-8859-1"?>
<!-- Uploaded to: SVG Repo, www.svgrepo.com, Generator: SVG Repo Mixer Tools -->
<svg fill="#000000" version="1.1" id="Layer_1" xmlns="http://www.w3.org/2000/svg" xmlns:xlink="http://www.w3.org/1999/xlink" 
	 viewBox="0 0 512.003 512.003" xml:space="preserve">
<g>
	<g>
		<rect x="474.257" y="0.002" width="37.747" height="394.618"/>
	</g>
</g>
<g>
	<g>
		<path d="M189.115,0.002c24.017,21.121,40.445,50.672,44.602,83.987h1.039v310.636h206.107V0.002H189.115z"/>
	</g>
</g>
<g>
	<g>
		<path d="M201.364,189.117c-24.589,27.962-60.607,45.64-100.683,45.64S24.589,217.078,0,189.117v222.202
			c0,55.516,45.166,100.683,100.683,100.683c55.516,0,100.683-45.166,100.683-100.681V189.117H201.364z"/>
	</g>
</g>
<g>
	<g>
		<path d="M100.683,0.002C45.167,0.002,0,45.168,0,100.684c0,55.516,45.166,100.681,100.683,100.681
			c55.516,0,100.683-45.166,100.683-100.683C201.365,45.167,156.198,0.002,100.683,0.002z M100.683,150.771
			c-27.618,0-50.087-22.469-50.087-50.087c0-27.618,22.469-50.087,50.087-50.087c27.618,0,50.087,22.469,50.087,50.087
			C150.77,128.302,128.301,150.771,100.683,150.771z"/>
	</g>
</g>
<g>
	<g>
		<path d="M100.683,83.989c-9.206,0-16.696,7.49-16.696,16.696c0,9.206,7.49,16.696,16.696,16.696
			c9.206,0,16.696-7.49,16.696-16.696C117.378,91.478,109.889,83.989,100.683,83.989z"/>
	</g>
</g>
</svg>