<?xml version="1.0" encoding="iso-8859-1"?>
<!-- Uploaded to: SVG Repo, www.svgrepo.com, Generator: SVG Repo Mixer Tools -->
<svg height="800px" width="800px" version="1.1" id="Layer_1" xmlns="http://www.w3.org/2000/svg" xmlns:xlink="http://www.w3.org/1999/xlink" 
	 viewBox="0 0 496.725 496.725" xml:space="preserve">
<path style="fill:#71B5BC;" d="M175.725,414.178L175.725,414.178c-4,0-8-1.6-10.4-4.8l-136-135.2c-5.6-5.6-5.6-15.2,0-21.6
	c5.6-5.6,15.2-5.6,21.6,0l124.8,124.8l255.2-255.2c5.6-5.6,15.2-5.6,21.6,0l40,40c5.6,5.6,5.6,15.2,0,21.6c-5.6,5.6-15.2,5.6-21.6,0
	l-28.8-28.8l-256,254.4C182.925,412.578,179.725,414.178,175.725,414.178z"/>
<path style="fill:#5D9BA5;" d="M477.326,176.578c4.8,4.8,11.2,5.6,16.8,3.2c2.4-5.6,1.6-12-3.2-16.8l-40-40
	c-5.6-5.6-15.2-5.6-21.6,0l-246.4,247.2l-7.2,7.2l-125.6-124.8c-4.8-4.8-11.2-5.6-16.8-3.2c-2.4,5.6-1.6,12,3.2,16.8l135.2,135.2
	c3.2,3.2,6.4,4.8,10.4,4.8s8-1.6,10.4-4.8l247.2-247.2l7.2-7.2L477.326,176.578z"/>
<path style="fill:#FFC200;" d="M128.525,194.978l-7.2-22.4c-0.8-1.6-1.6-2.4-3.2-2.4h-55.2c-1.6,0-3.2,0.8-3.2,2.4l-7.2,23.2
	c0,0.8,0,2.4,0.8,3.2c-0.8,0.8,0.8,1.6,1.6,1.6h69.6l0,0c2.4,0,4-1.6,4-4C129.325,195.778,128.525,194.978,128.525,194.978z"/>
<path style="fill:#FFB000;" d="M51.725,195.778c0,0.8,0,2.4,0.8,3.2c0,0.8,1.6,1.6,2.4,1.6h69.6l0,0c2.4,0,4-1.6,4-4
	c0-0.8,0-1.6-0.8-1.6l-7.2-22.4"/>
<path style="fill:#FF9700;" d="M51.725,195.778c0,0.8,0,2.4,0.8,3.2c0,0.8,1.6,1.6,2.4,1.6h69.6l0,0c2.4,0,4-1.6,4-4
	c0-0.8,0-1.6-0.8-1.6"/>
<path style="fill:#FFDA00;" d="M121.325,171.778c-0.8-1.6-1.6-2.4-3.2-2.4h-55.2c-1.6,0-3.2,0.8-3.2,2.4"/>
<g>
	<path style="fill:#FFC200;" d="M213.325,194.978l-7.2-22.4c-0.8-1.6-1.6-2.4-3.2-2.4h-55.2c-1.6,0-3.2,0.8-3.2,2.4l-7.2,23.2
		c0,0.8,0,2.4,0.8,3.2s1.6,1.6,3.2,1.6h69.6l0,0c2.4,0,4-1.6,4-4C214.125,195.778,213.325,194.978,213.325,194.978z"/>
</g>
<path style="fill:#FFB000;" d="M136.525,195.778c0,0.8,0,2.4,0.8,3.2s1.6,1.6,3.2,1.6h69.6l0,0c2.4,0,4-1.6,4-4c0-0.8,0-1.6-0.8-1.6
	l-7.2-22.4"/>
<path style="fill:#FF9700;" d="M136.525,195.778c0,0.8,0,2.4,0.8,3.2s1.6,1.6,3.2,1.6h69.6l0,0c2.4,0,4-1.6,4-4c0-0.8,0-1.6-0.8-1.6
	"/>
<path style="fill:#FFDA00;" d="M206.125,171.778c-0.8-1.6-1.6-2.4-3.2-2.4h-55.2c-1.6,0-3.2,0.8-3.2,2.4"/>
<g>
	<path style="fill:#FFC200;" d="M298.125,194.978l-7.2-22.4c-0.8-1.6-1.6-2.4-3.2-2.4h-55.2c-1.6,0-3.2,0.8-3.2,2.4l-7.2,23.2
		c0,0.8,0,2.4,0.8,3.2s1.6,1.6,3.2,1.6h69.6l0,0c2.4,0,4-1.6,4-4C298.926,195.778,298.926,194.978,298.125,194.978z"/>
</g>
<path style="fill:#FFB000;" d="M221.325,195.778c0,0.8,0,2.4,0.8,3.2s1.6,1.6,3.2,1.6h69.6l0,0c2.4,0,4-1.6,4-4c0-0.8,0-1.6-0.8-1.6
	l-7.2-22.4"/>
<path style="fill:#FF9700;" d="M221.325,195.778c0,0.8,0,2.4,0.8,3.2s1.6,1.6,3.2,1.6h69.6l0,0c2.4,0,4-1.6,4-4c0-0.8,0-1.6-0.8-1.6
	"/>
<path style="fill:#FFDA00;" d="M290.926,171.778c-0.8-1.6-1.6-2.4-3.2-2.4h-55.2c-1.6,0-3.2,0.8-3.2,2.4"/>
<g>
	<path style="fill:#FFC200;" d="M170.925,153.378l-7.2-22.4c-0.8-1.6-1.6-2.4-3.2-2.4h-55.2c-1.6,0-3.2,0.8-3.2,2.4l-7.2,23.2
		c0,0.8,0,2.4,0.8,3.2s1.6,1.6,3.2,1.6h68.8l0,0c2.4,0,4-1.6,4-4C171.725,154.978,170.925,154.178,170.925,153.378z"/>
</g>
<path style="fill:#FFB000;" d="M94.125,154.178c0,0.8,0,2.4,0.8,3.2s1.6,1.6,3.2,1.6h69.6l0,0c2.4,0,4-1.6,4-4c0-0.8,0-1.6-0.8-1.6
	l-7.2-22.4"/>
<path style="fill:#FF9700;" d="M94.125,154.178c0,0.8,0,2.4,0.8,3.2s1.6,1.6,3.2,1.6h69.6l0,0c2.4,0,4-1.6,4-4c0-0.8,0-1.6-0.8-1.6"
	/>
<path style="fill:#FFDA00;" d="M163.725,130.978c-0.8-1.6-1.6-2.4-3.2-2.4h-55.2c-1.6,0-3.2,0.8-3.2,2.4"/>
<g>
	<path style="fill:#FFC200;" d="M255.725,153.378l-7.2-22.4c-0.8-1.6-1.6-2.4-3.2-2.4h-55.2c-1.6,0-3.2,0.8-3.2,2.4l-7.2,23.2
		c0,0.8,0,2.4,0.8,3.2s1.6,1.6,3.2,1.6h69.6l0,0c2.4,0,4-1.6,4-4C256.525,154.978,255.725,154.178,255.725,153.378z"/>
</g>
<path style="fill:#FFB000;" d="M178.925,154.178c0,0.8,0,2.4,0.8,3.2s1.6,1.6,3.2,1.6h69.6l0,0c2.4,0,4-1.6,4-4c0-0.8,0-1.6-0.8-1.6
	l-7.2-22.4"/>
<path style="fill:#FF9700;" d="M178.925,154.178c0,0.8,0,2.4,0.8,3.2s1.6,1.6,3.2,1.6h69.6l0,0c2.4,0,4-1.6,4-4c0-0.8,0-1.6-0.8-1.6
	"/>
<path style="fill:#FFDA00;" d="M248.525,130.978c-0.8-1.6-1.6-2.4-3.2-2.4h-55.2c-1.6,0-3.2,0.8-3.2,2.4"/>
<g>
	<path style="fill:#FFC200;" d="M213.325,114.178l-7.2-22.4c-0.8-1.6-1.6-2.4-3.2-2.4h-55.2c-1.6,0-3.2,0.8-3.2,2.4l-7.2,23.2
		c0,0.8,0,2.4,0.8,3.2c0.8,0.8,1.6,1.6,3.2,1.6h69.6l0,0c2.4,0,4-1.6,4-4C214.125,114.978,213.325,114.178,213.325,114.178z"/>
</g>
<path style="fill:#FFB000;" d="M136.525,114.178c0,0.8,0,2.4,0.8,3.2c0.8,0.8,1.6,1.6,3.2,1.6h69.6l0,0c2.4,0,4-1.6,4-4
	c0-0.8,0-1.6-0.8-1.6l-7.2-22.4"/>
<path style="fill:#FF9700;" d="M136.525,114.178c0,0.8,0,2.4,0.8,3.2c0.8,0.8,1.6,1.6,3.2,1.6h69.6l0,0c2.4,0,4-1.6,4-4
	c0-0.8,0-1.6-0.8-1.6"/>
<path style="fill:#FFDA00;" d="M206.125,90.978c-0.8-1.6-1.6-2.4-3.2-2.4h-55.2c-1.6,0-3.2,0.8-3.2,2.4"/>
<g>
	<ellipse style="fill:#FFDA00;" cx="123.725" cy="65.378" rx="1.6" ry="28"/>
	<ellipse style="fill:#FFDA00;" cx="123.725" cy="65.378" rx="28" ry="1.6"/>
</g>
<g>
	
		<ellipse transform="matrix(0.7046 -0.7096 0.7096 0.7046 31.6678 169.9697)" style="fill:#FFB000;" cx="219.984" cy="46.949" rx="15.2" ry="0.8"/>
	
		<ellipse transform="matrix(0.7122 0.702 -0.702 0.7122 96.6937 -140.9882)" style="fill:#FFB000;" cx="220.286" cy="47.426" rx="15.2" ry="0.8"/>
</g>
<g>
	<ellipse style="fill:#FF9700;" cx="256.525" cy="112.578" rx="0.8" ry="11.2"/>
	<path style="fill:#FF9700;" d="M256.525,113.378c-6.4,0-11.2,0-11.2-0.8s4.8-0.8,11.2-0.8c6.4,0,11.2,0,11.2,0.8
		S262.125,113.378,256.525,113.378z"/>
</g>
<path id="SVGCleanerId_0" style="fill:#19BF55;" d="M349.326,198.178c-2.4-5.6-8-9.6-13.6-9.6h-320.8c-6.4,0-12,4-13.6,9.6
	c-2.4,5.6-0.8,12,3.2,16.8l160,160c3.2,3.2,7.2,4.8,10.4,4.8c4,0,8-1.6,10.4-4.8l160-160
	C350.125,210.178,351.725,203.778,349.326,198.178z"/>
<g>
	<path id="SVGCleanerId_0_1_" style="fill:#19BF55;" d="M349.326,198.178c-2.4-5.6-8-9.6-13.6-9.6h-320.8c-6.4,0-12,4-13.6,9.6
		c-2.4,5.6-0.8,12,3.2,16.8l160,160c3.2,3.2,7.2,4.8,10.4,4.8c4,0,8-1.6,10.4-4.8l160-160
		C350.125,210.178,351.725,203.778,349.326,198.178z"/>
</g>
<path style="fill:#0CAD60;" d="M349.326,198.178c-2.4-5.6-8-9.6-13.6-9.6h-267.2l151.2,151.2l125.6-125.6
	C350.125,210.178,351.725,203.778,349.326,198.178z"/>
<path style="fill:#39F76E;" d="M349.326,208.578c0.8-3.2,0.8-7.2,0-10.4c-2.4-5.6-8-9.6-13.6-9.6h-320.8c-6.4,0-12,4-13.6,9.6
	c-1.6,3.2-1.6,7.2-0.8,10.4H349.326z"/>
<path style="fill:#12DB55;" d="M349.326,208.578c0-0.8,0.8-1.6,0.8-2.4c0-0.8,0-1.6,0-2.4c0-0.8,0-0.8,0-1.6c0-1.6-0.8-2.4-0.8-4
	c-2.4-5.6-8-9.6-13.6-9.6h-267.2l19.2,19.2h261.6V208.578z"/>
<path style="fill:#C43700;" d="M217.325,415.778c0,23.2-18.4,44.8-41.6,44.8s-41.6-21.6-41.6-44.8c0-23.2,18.4-41.6,41.6-41.6
	C198.125,374.178,217.325,392.578,217.325,415.778z"/>
<path style="fill:#FF9D00;" d="M217.325,415.778c0,23.2-18.4,41.6-41.6,41.6s-41.6-18.4-41.6-41.6s18.4-44.8,41.6-44.8
	C198.125,370.178,217.325,392.578,217.325,415.778z"/>
<circle style="fill:#FF5B00;" cx="174.925" cy="415.778" r="41.6"/>
<path style="fill:#DD4400;" d="M145.325,386.178c16-16,43.2-16,59.2,0s16,43.2,0,59.2"/>
<path style="fill:#EBF0F2;" d="M174.925,440.578c-13.6,0-24.8-11.2-24.8-24.8c0-13.6,11.2-24.8,24.8-24.8s24.8,11.2,24.8,24.8
	S188.525,440.578,174.925,440.578z"/>
<path style="fill:#CADFE5;" d="M192.525,398.178c9.6,9.6,9.6,25.6,0,35.2s-25.6,9.6-35.2,0"/>
</svg>